<svg width="25" height="27" viewBox="0 0 25 27" fill="none" xmlns="http://www.w3.org/2000/svg">
<path fill-rule="evenodd" clip-rule="evenodd" d="M11.156 1.43328C11.4896 1.0795 11.9457 0.876813 12.4242 0.869773C12.6656 0.866081 12.9052 0.912343 13.1289 1.00582C13.3526 1.0993 13.5558 1.23809 13.7266 1.41399C13.8973 1.58989 14.0322 1.79933 14.123 2.0299C14.2139 2.26048 14.2591 2.50751 14.2558 2.75638V11.7266H22.9531C23.1942 11.7198 23.4342 11.7628 23.6589 11.8533C23.8836 11.9437 24.0884 12.0796 24.2613 12.2531C24.4342 12.4265 24.5716 12.634 24.6654 12.8631C24.7593 13.0922 24.8076 13.3385 24.8076 13.5872C24.8076 13.8359 24.7593 14.0821 24.6654 14.3113C24.5716 14.5404 24.4342 14.7479 24.2613 14.9213C24.0884 15.0947 23.8836 15.2307 23.6589 15.3211C23.4342 15.4116 23.1942 15.4546 22.9531 15.4478H14.2558V24.4166C14.2604 24.6641 14.2172 24.9101 14.1286 25.1402C14.0399 25.3703 13.9077 25.5798 13.7396 25.7566C13.5715 25.9333 13.3709 26.0737 13.1496 26.1696C12.9282 26.2654 12.6905 26.3148 12.4505 26.3148C12.2104 26.3148 11.9727 26.2654 11.7514 26.1696C11.53 26.0737 11.3295 25.9333 11.1614 25.7566C10.9933 25.5798 10.861 25.3703 10.7724 25.1402C10.6838 24.9101 10.6405 24.6641 10.6452 24.4166V15.4478H1.94789C1.70677 15.4546 1.46678 15.4116 1.24208 15.3211C1.01737 15.2307 0.81253 15.0947 0.639644 14.9213C0.466758 14.7479 0.329337 14.5404 0.235503 14.3113C0.141668 14.0821 0.0933228 13.8359 0.0933228 13.5872C0.0933228 13.3385 0.141668 13.0922 0.235503 12.8631C0.329337 12.634 0.466758 12.4265 0.639644 12.2531C0.81253 12.0796 1.01737 11.9437 1.24208 11.8533C1.46678 11.7628 1.70677 11.7198 1.94789 11.7266H10.6452V2.75638C10.6386 2.26296 10.8223 1.78705 11.156 1.43328Z" fill="white"/>
</svg>
