<svg width="40" height="40" viewBox="0 0 40 40" fill="none" xmlns="http://www.w3.org/2000/svg">
<g filter="url(#filter0_b_390_1403)">
<circle cx="20" cy="20" r="20" fill="#3C3C3C" fill-opacity="0.3"/>
</g>
<path d="M19.7974 8.57141C19.4837 8.57173 19.183 8.69649 18.9611 8.91831C18.7393 9.14012 18.6146 9.44088 18.6142 9.75457V18.5568L17.0373 16.9799C16.4897 16.4475 15.7858 16.5831 15.3773 16.9921C14.9683 17.4012 14.8322 18.1026 15.3682 18.6557L18.9574 22.2455C19.171 22.4659 19.4641 22.5892 19.7815 22.5923H19.7919C20.1094 22.5923 20.4159 22.4671 20.6338 22.2486L24.2297 18.6527C24.7614 18.102 24.6259 17.4005 24.2175 16.9915C23.809 16.5825 23.1076 16.4482 22.5538 16.983L20.98 18.5568V9.75396C20.9795 9.44048 20.8547 9.13997 20.6331 8.91831C20.4114 8.69664 20.1109 8.5719 19.7974 8.57141Z" fill="white"/>
<path d="M12.6117 20.2296C12.2982 20.2299 11.9975 20.3546 11.7757 20.5763C11.5539 20.798 11.4291 21.0986 11.4286 21.4122V22.7211C11.4286 25.3548 13.5709 27.4971 16.2046 27.4971H23.3902C26.0239 27.4971 28.1662 25.3542 28.1662 22.7211V21.4122C28.1657 21.0987 28.041 20.7982 27.8193 20.5765C27.5977 20.3548 27.2971 20.2301 26.9837 20.2296C26.6701 20.2299 26.3694 20.3546 26.1476 20.5763C25.9258 20.798 25.801 21.0986 25.8005 21.4122V22.7211C25.7999 23.3601 25.5457 23.9728 25.0938 24.4247C24.642 24.8766 24.0293 25.1307 23.3902 25.1314H16.2046C15.5655 25.1307 14.9528 24.8766 14.501 24.4247C14.0491 23.9728 13.7949 23.3601 13.7943 22.7211V21.4122C13.7938 21.0986 13.669 20.798 13.4472 20.5763C13.2254 20.3546 12.9253 20.2299 12.6117 20.2296Z" fill="white"/>
<defs>
<filter id="filter0_b_390_1403" x="-9" y="-9" width="58" height="58" filterUnits="userSpaceOnUse" color-interpolation-filters="sRGB">
<feFlood flood-opacity="0" result="BackgroundImageFix"/>
<feGaussianBlur in="BackgroundImageFix" stdDeviation="4.5"/>
<feComposite in2="SourceAlpha" operator="in" result="effect1_backgroundBlur_390_1403"/>
<feBlend mode="normal" in="SourceGraphic" in2="effect1_backgroundBlur_390_1403" result="shape"/>
</filter>
</defs>
</svg>
